HIERARCHY
ROOT Hips
{
	OFFSET 0.000000 0.000000 0.000000
	CHANNELS 6 Xposition Yposition Zposition Zrotation Yrotation Xrotation 
	JOINT LHipJoint
	{
		OFFSET 0.000000 0.000000 0.000000
		CHANNELS 3 Zrotation Yrotation Xrotation
		JOINT LeftUpLeg
		{
			OFFSET 1.363060 -1.794630 0.839290
			CHANNELS 3 Zrotation Yrotation Xrotation
			JOINT LeftLeg
			{
				OFFSET 2.448110 -6.726130 0.000000
				CHANNELS 3 Zrotation Yrotation Xrotation
				JOINT LeftFoot
				{
					OFFSET 2.562200 -7.039590 0.000000
					CHANNELS 3 Zrotation Yrotation Xrotation
					JOINT LeftToeBase
					{
						OFFSET 0.157640 -0.433110 2.322550
						CHANNELS 3 Zrotation Yrotation Xrotation
						End Site
						{
							OFFSET 0.000000 0.000000 0.000000
						}
					}
				}
			}
		}
	}
	JOINT RHipJoint
	{
		OFFSET 0.000000 0.000000 0.000000
		CHANNELS 3 Zrotation Yrotation Xrotation
		JOINT RightUpLeg
		{
			OFFSET -1.305520 -1.794630 0.839290
			CHANNELS 3 Zrotation Yrotation Xrotation
			JOINT RightLeg
			{
				OFFSET -2.542530 -6.985550 0.000000
				CHANNELS 3 Zrotation Yrotation Xrotation
				JOINT RightFoot
				{
					OFFSET -2.568260 -7.056230 0.000000
					CHANNELS 3 Zrotation Yrotation Xrotation
					JOINT RightToeBase
					{
						OFFSET -0.164730 -0.452590 2.363150
						CHANNELS 3 Zrotation Yrotation Xrotation
						End Site
						{
							OFFSET 0.000000 0.000000 0.000000
						}
					}
				}
			}
		}
	}
	JOINT LowerBack
	{
		OFFSET 0.000000 0.000000 0.000000
		CHANNELS 3 Zrotation Yrotation Xrotation
		JOINT Spine
		{
			OFFSET 0.028270 2.035590 -0.193380
			CHANNELS 3 Zrotation Yrotation Xrotation
			JOINT Spine1
			{
				OFFSET 0.056720 2.048850 -0.042750
				CHANNELS 3 Zrotation Yrotation Xrotation
				JOINT Neck
				{
					OFFSET 0.000000 0.000000 0.000000
					CHANNELS 3 Zrotation Yrotation Xrotation
					JOINT Neck1
					{
						OFFSET -0.054170 1.746240 0.172020
						CHANNELS 3 Zrotation Yrotation Xrotation
						JOINT Head
						{
							OFFSET 0.104070 1.761360 -0.123970
							CHANNELS 3 Zrotation Yrotation Xrotation
							End Site
							{
								OFFSET 0.000000 0.000000 0.000000
							}
						}
					}
				}
				JOINT LeftShoulder
				{
					OFFSET 0.000000 0.000000 0.000000
					CHANNELS 3 Zrotation Yrotation Xrotation
					JOINT LeftArm
					{
						OFFSET 3.362410 1.200890 -0.311210
						CHANNELS 3 Zrotation Yrotation Xrotation
						JOINT LeftForeArm
						{
							OFFSET 4.983000 -0.000000 -0.000000
							CHANNELS 3 Zrotation Yrotation Xrotation
							JOINT LeftHand
							{
								OFFSET 3.483560 -0.000000 -0.000000
								CHANNELS 3 Zrotation Yrotation Xrotation
								JOINT LeftFingerBase
								{
									OFFSET 0.000000 0.000000 0.000000
									CHANNELS 3 Zrotation Yrotation Xrotation
									JOINT LeftHandIndex1
									{
										OFFSET 0.715260 -0.000000 -0.000000
										CHANNELS 3 Zrotation Yrotation Xrotation
										End Site
										{
											OFFSET 0.000000 0.000000 0.000000
										}
									}
								}
								JOINT LThumb
								{
									OFFSET 0.000000 0.000000 0.000000
									CHANNELS 3 Zrotation Yrotation Xrotation
									End Site
									{
										OFFSET 0.000000 0.000000 0.000000
									}
								}
							}
						}
					}
				}
				JOINT RightShoulder
				{
					OFFSET 0.000000 0.000000 0.000000
					CHANNELS 3 Zrotation Yrotation Xrotation
					JOINT RightArm
					{
						OFFSET -3.136600 1.374050 -0.404650
						CHANNELS 3 Zrotation Yrotation Xrotation
						JOINT RightForeArm
						{
							OFFSET -5.241900 -0.000000 -0.000000
							CHANNELS 3 Zrotation Yrotation Xrotation
							JOINT RightHand
							{
								OFFSET -3.444170 -0.000000 -0.000000
								CHANNELS 3 Zrotation Yrotation Xrotation
								JOINT RightFingerBase
								{
									OFFSET 0.000000 0.000000 0.000000
									CHANNELS 3 Zrotation Yrotation Xrotation
									JOINT RightHandIndex1
									{
										OFFSET -0.622530 -0.000000 -0.000000
										CHANNELS 3 Zrotation Yrotation Xrotation
										End Site
										{
											OFFSET 0.000000 0.000000 0.000000
										}
									}
								}
								JOINT RThumb
								{
									OFFSET 0.000000 0.000000 0.000000
									CHANNELS 3 Zrotation Yrotation Xrotation
									End Site
									{
										OFFSET 0.000000 0.000000 0.000000
									}
								}
							}
						}
					}
				}
			}
		}
	}
}
MOTION
Frames: 7
Frame Time: 0.008333
2.931995 16.942792 2.779967 -45.265638 -47.950508 31.665311 -14.131157 -2.669840 -1.795901 15.129173 -17.518668 1.934715 0.091179 2.943585 32.103975 0.923844 3.149550 -15.991210 -0.556400 -0.000000 -45.154300 4.364173 6.654298 0.680548 -3.994712 -21.239273 -73.925193 2.435759 0.501017 3.970304 0.432127 -11.249715 -7.294578 -3.642900 0.000001 -51.994200 4.027858 -6.098813 7.589023 -0.448649 -6.234250 -1.016963 -8.653485 -6.035060 -0.388196 14.371423 -12.849055 -3.360194 -2.713575 -0.246732 0.878235 0.000000 0.000000 0.000000 5.465499 -1.257278 -0.760799 -45.132447 1.217845 34.433098 -0.887203 -63.214179 -0.001640 -2.941380 -9.509939 0.255385 0.067792 0.197365 0.000000 0.000000 0.000000 0.000000 0.000000 0.000000 0.000000 16.388120 -13.489676 -0.364215 66.065805 -26.291436 -20.942056 5.223780 4.887556 0.025446 10.027623 14.376804 1.255878 0.100761 -0.000489 -0.000000 0.000000 0.000000 0.000000 0.000000 0.000000 0.000000 
2.894505 16.981453 2.798286 -44.922492 -47.901477 31.424087 -14.040984 -2.498277 -1.545011 15.198420 -16.880372 1.784105 0.113768 2.796157 31.179618 0.823010 2.510171 -15.543270 -0.445800 -0.000000 -46.659400 4.800491 6.558341 1.012163 -6.864373 -19.680939 -69.540588 1.898738 0.596479 2.763097 0.247520 -15.158050 -6.172344 -4.747800 0.000001 -54.526801 3.459085 -6.151890 6.744190 -0.552870 -6.301725 -1.144529 -8.644754 -6.096181 -0.354847 14.461487 -13.256987 -3.310831 -2.796080 -0.254015 0.896038 0.000000 0.000000 0.000000 4.844664 -0.958836 -0.924071 -45.460239 2.514319 34.335975 -0.913604 -62.413130 -0.002178 -2.806817 -9.553959 0.244480 0.064707 0.186319 0.000000 0.000000 0.000000 0.000000 0.000000 0.000000 0.000000 17.049625 -14.034798 -0.599391 65.945036 -27.448253 -22.407796 5.238443 4.357319 0.026657 9.685797 14.320383 1.208091 0.102078 -0.006367 -0.000000 0.000000 0.000000 0.000000 0.000000 0.000000 0.000000 
2.859020 17.015404 2.820906 -44.932433 -48.016814 31.614844 -14.002379 -2.325795 -1.273586 15.527609 -15.899406 1.333066 0.157222 2.643720 30.428249 0.707910 1.768488 -15.154464 -0.330200 0.000000 -48.250900 5.226358 6.351356 1.360834 -9.301531 -17.410551 -64.603056 1.356238 0.807076 0.190669 -0.567663 -19.542902 -3.388395 -6.005200 -0.000000 -57.142800 3.071871 -6.129297 5.781064 -0.621818 -6.297239 -1.310749 -8.651983 -6.090658 -0.342195 14.513857 -13.577196 -3.320556 -2.875566 -0.260678 0.901735 0.000000 0.000000 0.000000 4.200235 -0.562704 -1.063838 -45.822642 3.798086 34.062453 -0.947226 -61.587780 -0.002418 -2.661906 -9.596188 0.232495 0.060244 0.175459 0.000000 0.000000 0.000000 0.000000 0.000000 0.000000 0.000000 17.651160 -14.409500 -0.790681 65.786973 -28.575789 -23.832364 5.256899 3.789991 0.028283 9.221259 14.265919 1.145110 0.104934 -0.012987 -0.000000 0.000000 0.000000 0.000000 0.000000 0.000000 0.000000 
2.827707 17.042582 2.848055 -45.375295 -48.204619 32.060986 -14.027043 -2.131639 -0.972776 16.108391 -14.726210 0.914999 0.215391 2.502687 29.772275 0.588434 0.973100 -14.822938 -0.214900 0.000000 -49.840200 5.565325 6.055913 1.478329 -9.912298 -15.360664 -59.512343 1.074175 1.106316 -3.971965 -2.318661 -22.574374 1.754521 -6.875301 0.000000 -60.028000 2.954925 -6.051127 4.928775 -0.641793 -6.239842 -1.474123 -8.676673 -6.035234 -0.363398 14.526454 -13.797416 -3.385620 -2.950673 -0.266472 0.894689 0.000000 0.000000 0.000000 3.537758 -0.090726 -1.170949 -46.244164 5.051443 33.586906 -0.989417 -60.750036 -0.002391 -2.513545 -9.637617 0.220122 0.054808 0.165094 0.000000 0.000000 0.000000 0.000000 0.000000 0.000000 0.000000 18.170062 -14.609566 -0.931113 65.613087 -29.639103 -25.147668 5.274472 3.192208 0.030070 8.627666 14.212556 1.066230 0.109153 -0.019417 -0.000000 0.000000 0.000000 0.000000 0.000000 0.000000 0.000000 
2.799454 17.062081 2.875270 -45.971818 -48.361016 32.330184 -14.065976 -1.920438 -0.687093 16.639313 -13.751474 0.963598 0.264365 2.386148 29.080595 0.493558 0.313313 -14.555328 -0.125200 -0.000001 -51.193801 5.782905 5.760450 1.270234 -8.242709 -14.618268 -56.870749 1.316635 1.114182 -4.661660 -3.671801 -22.315640 6.162453 -6.700200 0.000000 -62.534000 2.966973 -5.975727 4.406532 -0.647727 -6.180403 -1.594404 -8.706307 -5.977944 -0.426481 14.521008 -13.928920 -3.498320 -3.015906 -0.270733 0.873422 0.000000 0.000000 0.000000 2.945152 0.401168 -1.243088 -46.750518 6.282597 32.912074 -1.039559 -59.910170 -0.002252 -2.369231 -9.678099 0.207954 0.049413 0.155681 0.000000 0.000000 0.000000 0.000000 0.000000 0.000000 0.000000 18.614585 -14.683511 -1.024743 65.472278 -30.621186 -26.282538 5.277325 2.579227 0.031659 7.911240 14.158200 0.972346 0.113909 -0.024873 -0.000000 0.000000 0.000000 0.000000 0.000000 0.000000 0.000000 
2.770576 17.073922 2.895466 -46.403059 -48.445411 32.078827 -14.068103 -1.706750 -0.478074 16.853636 -13.257874 1.743267 0.280717 2.307697 28.254749 0.440997 -0.077693 -14.354094 -0.077100 -0.000000 -52.154400 5.902370 5.508812 0.804441 -5.502389 -15.102013 -58.306449 1.954554 0.461008 2.711002 -3.222175 -19.491594 6.365029 -5.759300 -0.000000 -63.087300 2.886836 -5.949471 4.317555 -0.685466 -6.154283 -1.641829 -8.724881 -5.952385 -0.526702 14.531733 -13.999988 -3.645835 -3.063205 -0.272758 0.838221 0.000000 0.000000 0.000000 2.560231 0.856411 -1.290492 -47.370632 7.517257 32.064196 -1.093882 -59.078098 -0.002179 -2.236894 -9.715322 0.196777 0.045146 0.147733 0.000000 0.000000 0.000000 0.000000 0.000000 0.000000 0.000000 19.004795 -14.690434 -1.078083 65.428109 -31.511493 -27.171231 5.254184 1.971061 0.032812 7.092584 14.100066 0.866254 0.118380 -0.029049 -0.000000 0.000000 0.000000 0.000000 0.000000 0.000000 0.000000 
2.741747 17.078263 2.909087 -46.805869 -48.547817 31.507342 -14.077156 -1.482825 -0.326771 16.916224 -13.010371 3.040117 0.275065 2.273140 27.352013 0.412532 -0.305978 -14.202409 -0.052100 0.000001 -52.833199 6.052711 5.236269 0.112184 -2.997181 -15.779036 -58.735283 2.426373 -0.233746 9.156528 -2.722518 -16.746695 7.216636 -5.005000 -0.000001 -61.386201 2.735750 -5.933120 4.567878 -0.741286 -6.124855 -1.613424 -8.733979 -5.922342 -0.646910 14.562895 -14.017330 -3.814737 -3.092400 -0.272875 0.793960 0.000000 0.000000 0.000000 2.376545 1.286676 -1.324525 -48.107263 8.737638 31.057696 -1.149872 -58.265724 -0.002136 -2.125793 -9.749761 0.187494 0.041844 0.141176 0.000000 0.000000 0.000000 0.000000 0.000000 0.000000 0.000000 19.336156 -14.615762 -1.090520 65.486361 -32.265815 -27.778430 5.213883 1.377681 0.033619 6.201933 14.034938 0.751558 0.122707 -0.032058 -0.000000 0.000000 0.000000 0.000000 0.000000 0.000000 0.000000 
